<svg width="896" height="747.97143" xmlns="http://www.w3.org/2000/svg" data-name="Layer 1">
 <title>empty_cart</title>

 <g>
  <title>Layer 1</title>
  <rect x="413.2485" y="35.90779" width="140" height="2" fill="#f2f2f2" id="svg_3"/>
  <rect x="513.2485" y="37.40779" width="2" height="18.5" fill="#f2f2f2" id="svg_4"/>
  <rect x="452.2485" y="37.40779" width="2" height="18.5" fill="#f2f2f2" id="svg_5"/>
  <rect x="484.2485" y="131.90779" width="140" height="2" fill="#f2f2f2" id="svg_6"/>
  <rect x="522.2485" y="113.90779" width="2" height="18.5" fill="#f2f2f2" id="svg_7"/>
  <rect x="583.2485" y="113.90779" width="2" height="18.5" fill="#f2f2f2" id="svg_8"/>
  <rect x="670.2485" y="176.90779" width="140" height="2" fill="#f2f2f2" id="svg_9"/>
  <rect x="708.2485" y="158.90779" width="2" height="18.5" fill="#f2f2f2" id="svg_10"/>
  <rect x="769.2485" y="158.90779" width="2" height="18.5" fill="#f2f2f2" id="svg_11"/>
  <rect x="656.2485" y="640.90779" width="140" height="2" fill="#f2f2f2" id="svg_12"/>
  <rect x="694.2485" y="622.90779" width="2" height="18.5" fill="#f2f2f2" id="svg_13"/>
  <rect x="755.2485" y="622.90779" width="2" height="18.5" fill="#f2f2f2" id="svg_14"/>
  <rect x="497.2485" y="319.90779" width="140" height="2" fill="#f2f2f2" id="svg_15"/>
  <rect x="535.2485" y="301.90779" width="2" height="18.5" fill="#f2f2f2" id="svg_16"/>
  <rect x="596.2485" y="301.90779" width="2" height="18.5" fill="#f2f2f2" id="svg_17"/>
  <rect x="541.2485" y="560.90779" width="140" height="2" fill="#f2f2f2" id="svg_18"/>
  <rect x="579.2485" y="542.90779" width="2" height="18.5" fill="#f2f2f2" id="svg_19"/>
  <rect x="640.2485" y="542.90779" width="2" height="18.5" fill="#f2f2f2" id="svg_20"/>
  <rect x="685.2485" y="487.90779" width="140" height="2" fill="#f2f2f2" id="svg_21"/>
  <rect x="723.2485" y="469.90779" width="2" height="18.5" fill="#f2f2f2" id="svg_22"/>
  <rect x="784.2485" y="469.90779" width="2" height="18.5" fill="#f2f2f2" id="svg_23"/>
  <circle cx="625.92726" cy="282.153" r="11.07274" fill="#3f3d56" id="svg_27"/>
  <polygon points="533.4649658203125,322.70001220703125 531.8179931640625,322.26300048828125 543.0590209960938,279.8940124511719 608.447998046875,279.8940124511719 608.447998046875,281.5979919433594 544.3699951171875,281.5979919433594 533.4649658203125,322.70001220703125 " fill="#2f2e41" id="svg_30"/>
  <rect x="110.81822" y="1507.03224" width="186.92877" height="1.70379" fill="#2f2e41" transform="rotate(-86.2492 -274.739 936.235)" id="svg_34"/>
  <rect y="745" width="896" height="2" fill="#2f2e41" id="svg_36"/>
  <rect x="140.2485" y="352.90779" width="140" height="2" fill="#f2f2f2" id="svg_52"/>
  <rect x="178.2485" y="334.90779" width="2" height="18.5" fill="#f2f2f2" id="svg_53"/>
  <rect x="239.2485" y="334.90779" width="2" height="18.5" fill="#f2f2f2" id="svg_54"/>
  <rect x="109.2485" y="56.90779" width="140" height="2" fill="#f2f2f2" id="svg_55"/>
  <rect x="209.2485" y="58.40779" width="2" height="18.5" fill="#f2f2f2" id="svg_56"/>
  <rect x="148.2485" y="58.40779" width="2" height="18.5" fill="#f2f2f2" id="svg_57"/>
  <rect x="250.2485" y="253.90779" width="140" height="2" fill="#f2f2f2" id="svg_58"/>
  <rect x="430.2485" y="255.40779" width="2" height="18.5" fill="#f2f2f2" id="svg_59"/>
  <rect x="369.2485" y="255.40779" width="2" height="18.5" fill="#f2f2f2" id="svg_60"/>
  <rect x="12.2485" y="252.90779" width="140" height="2" fill="#f2f2f2" id="svg_61"/>
  <rect x="192.2485" y="254.40779" width="2" height="18.5" fill="#f2f2f2" id="svg_62"/>
  <rect x="51.2485" y="254.40779" width="2" height="18.5" fill="#f2f2f2" id="svg_63"/>
  <rect x="180.2485" y="152.90779" width="140" height="2" fill="#f2f2f2" id="svg_64"/>
  <rect x="218.2485" y="134.90779" width="2" height="18.5" fill="#f2f2f2" id="svg_65"/>
  <rect x="279.2485" y="134.90779" width="2" height="18.5" fill="#f2f2f2" id="svg_66"/>
  <g id="svg_37">
   <title>animating</title>
   <g id="svg_38">
    <title>Layer 1</title>
    <circle id="svg_108" fill="#2f2e41" r="49.41087" cy="112.65711" cx="737.46453"/>
    <path id="svg_107" fill="#9e616a" d="m681.58319,188.73834s-21.17608,0 -23.529,12.94094s-5.88225,154.11486 -3.52935,171.76159s2.3529,14.1174 2.3529,14.1174s-4.69065,33.53434 5.88982,35.00213s10.58044,-38.53148 10.58044,-38.53148l8.23514,-143.52681l0.00005,-51.76377z"/>
    <path id="svg_106" fill="#9e616a" d="m773.34623,188.73834s21.17609,0 23.529,12.94094s5.88225,154.11486 3.52935,171.76159s-2.3529,14.1174 -2.3529,14.1174s4.69065,33.53434 -5.88982,35.00213s-10.58047,-38.53148 -10.58047,-38.53148l-8.23515,-143.52681l-0.00001,-51.76377z"/>
    <path id="svg_105" fill="#2f2e41" d="m678.05384,680.49413l-9.41159,0a21.17583,21.17583 0 0 0 -21.17609,21.176l0,0.00008l57.646,0l0,-27.05833l-27.05832,0l0,5.88225z"/>
    <path id="svg_104" fill="#2f2e41" d="m768.64044,680.49413l9.41156,0a21.17583,21.17583 0 0 1 21.17609,21.176l0,0.00008l-57.646,0l0,-27.05833l27.05834,0l0.00001,5.88225z"/>
    <circle id="svg_103" fill="#9e616a" r="30.58768" cy="131.09232" cx="722.05312"/>
    <path stroke="null" id="svg_102" fill="#9e616a" d="m710.99442,147.56262s-3.52934,38.82282 -8.23514,42.35217s49.41087,-2.3529 49.41087,-2.3529s-18.82319,-28.23478 -15.29384,-37.64637s-25.88189,-2.3529 -25.88189,-2.3529z"/>
    <path stroke="null" id="svg_101" fill="#2f2e41" d="m780.40493,188.73834s-64.70471,-27.05833 -107.05688,0c0,0 -10.588,27.05833 -2.3529,42.35217s21.17609,51.76377 8.23514,76.46921s1.17645,14.11739 1.17645,14.11739s-16.47029,65.88116 -18.82319,117.64489s7.0587,237.64275 14.1174,238.8192s29.41123,3.52935 31.76413,0s18.82318,-249.4072 18.82318,-249.4072s7.0587,251.76014 14.11739,251.76014s25.88189,0 29.41124,-5.88225s32.94058,-232.93696 22.35253,-279.99489s-17.64674,-70.587 -17.64674,-70.587s12.94094,-8.23515 9.4116,-12.94095s-21.17609,-55.29305 -12.94094,-63.52825s9.41159,-58.82246 9.41159,-58.82246z"/>
    <path stroke="null" id="svg_100" fill="#2f2e41" d="m768.31854,87.92157a33.28471,33.28471 0 0 1 -25.11293,-38.46464c-0.14422,0.50592 -0.27993,1.01624 -0.40155,1.53384a33.28557,33.28557 0 0 0 64.80618,15.22745c0.12162,-0.5176 0.22738,-1.035 0.32356,-1.55216a33.28476,33.28476 0 0 1 -39.61526,23.25551z"/>
    <circle id="svg_99" fill="#2f2e41" r="24.17979" cy="70.17979" cx="770.33002"/>
    <path stroke="null" id="svg_98" fill="#9e616a"/>
    <path stroke="null" id="svg_97" fill="#2f2e41" d="m768.31854,88.07218a33.28471,33.28471 0 0 1 -25.11293,-38.46464c-0.14422,0.50592 -0.27993,1.01624 -0.40155,1.53384a33.28557,33.28557 0 0 0 64.80618,15.22745c0.12162,-0.5176 0.22738,-1.035 0.32356,-1.55216a33.28476,33.28476 0 0 1 -39.61526,23.25551z"/>
    <path stroke="null" id="svg_96" fill="#2f2e41" d="m768.31854,88.07218a33.28471,33.28471 0 0 1 -25.11293,-38.46464c-0.14422,0.50592 -0.27993,1.01624 -0.40155,1.53384a33.28557,33.28557 0 0 0 64.80618,15.22745c0.12162,-0.5176 0.22738,-1.035 0.32356,-1.55216a33.28476,33.28476 0 0 1 -39.61526,23.25551z"/>
    <path stroke="null" id="svg_95" fill="#2f2e41" d="m710.31854,138.07218a33.28471,33.28471 0 0 1 -25.11293,-38.46464c-0.14422,0.50592 -0.27993,1.01624 -0.40155,1.53384a33.28557,33.28557 0 0 0 64.80618,15.22745c0.12162,-0.5176 0.22738,-1.035 0.32356,-1.55216a33.28476,33.28476 0 0 1 -39.61526,23.25551z" transform="rotate(-174.586 716.931 120.812)"/>
    <path stroke="null" id="svg_94" fill="#2f2e41" d="m708.31854,137.07218a33.28471,33.28471 0 0 1 -25.11293,-38.46464c-0.14422,0.50592 -0.27993,1.01624 -0.40155,1.53384a33.28557,33.28557 0 0 0 64.80618,15.22745c0.12162,-0.5176 0.22738,-1.035 0.32356,-1.55216a33.28476,33.28476 0 0 1 -39.61526,23.25551z" transform="rotate(-174.586 714.931 119.812)"/>
    <path stroke="null" id="svg_93" fill="#2f2e41" d="m716.31854,139.07218a33.28471,33.28471 0 0 1 -25.11293,-38.46464c-0.14422,0.50592 -0.27993,1.01624 -0.40155,1.53384a33.28557,33.28557 0 0 0 64.80618,15.22745c0.12162,-0.5176 0.22738,-1.035 0.32356,-1.55216a33.28476,33.28476 0 0 1 -39.61526,23.25551z" transform="rotate(-174.586 722.931 121.812)"/>
    <path stroke="null" id="svg_92" fill="#2f2e41" d="m712.31854,139.07218a33.28471,33.28471 0 0 1 -25.11293,-38.46464c-0.14422,0.50592 -0.27993,1.01624 -0.40155,1.53384a33.28557,33.28557 0 0 0 64.80618,15.22745c0.12162,-0.5176 0.22738,-1.035 0.32356,-1.55216a33.28476,33.28476 0 0 1 -39.61526,23.25551z" transform="rotate(-174.586 718.931 121.812)"/>
    <path stroke="null" id="svg_91" fill="#2f2e41" d="m716.31854,139.07218a33.28471,33.28471 0 0 1 -25.11293,-38.46464c-0.14422,0.50592 -0.27993,1.01624 -0.40155,1.53384a33.28557,33.28557 0 0 0 64.80618,15.22745c0.12162,-0.5176 0.22738,-1.035 0.32356,-1.55216a33.28476,33.28476 0 0 1 -39.61526,23.25551z" transform="rotate(-174.586 722.931 121.812)"/>
    <path stroke="null" id="svg_90" fill="#2f2e41" d="m716.31854,139.07218a33.28471,33.28471 0 0 1 -25.11293,-38.46464c-0.14422,0.50592 -0.27993,1.01624 -0.40155,1.53384a33.28557,33.28557 0 0 0 64.80618,15.22745c0.12162,-0.5176 0.22738,-1.035 0.32356,-1.55216a33.28476,33.28476 0 0 1 -39.61526,23.25551z" transform="rotate(-174.586 722.931 121.812)"/>
    <path stroke="null" id="svg_89" fill="#9e616a" d="m710.99442,147.71323s-3.52934,38.82282 -8.23514,42.35217s49.41087,-2.3529 49.41087,-2.3529s-18.82319,-28.23478 -15.29384,-37.64637s-25.88189,-2.3529 -25.88189,-2.3529z"/>
   </g>
  </g>
  <g stroke="null" id="svg_39">
   <path stroke="null" d="m88.98936,706.11051c13.43006,27.59424 41.93347,39.43993 41.93347,39.43993s6.72898,-32.89356 -6.70108,-60.48786s-41.93347,-39.43993 -41.93347,-39.43993s-6.72897,32.89356 6.70108,60.48786z" fill="#2f2e41" id="svg_1"/>
   <path stroke="null" d="m98.22035,697.03217c24.24678,16.16182 33.58498,48.26365 33.58498,48.26365s-29.9736,5.89835 -54.22038,-10.26348s-33.58498,-48.26365 -33.58498,-48.26365s29.97359,-5.89834 54.22038,10.26348z" fill="#6c63ff" id="svg_2"/>
   <polygon stroke="null" points="435.2392578125,693.4753963394833 179.3701171875,693.4753963394833 179.3701171875,691.4365076095564 433.3979187011719,691.4365076095564 433.3979187011719,592.5239573336185 200.88037109375,592.5239573336185 189.5849609375,566.452474978716 191.24473571777344,565.5701057087463 202.0387725830078,590.4838289064501 435.2392578125,590.4838289064501 435.2392578125,693.4753963394833 " fill="#2f2e41" id="svg_24"/>
   <circle stroke="null" cx="213.42445" cy="722.02733" r="17.30003" fill="#3f3d56" id="svg_25"/>
   <circle stroke="null" cx="403.94588" cy="722.02733" r="17.30003" fill="#3f3d56" id="svg_26"/>
   <path stroke="null" d="m462.60567,558.87324l-287.59821,0l-62.22947,-225.35653l413.91456,0l-0.37661,1.32593l-63.71028,224.0306zm-286.2365,-2.03943l284.88643,0l62.9274,-221.27773l-408.91707,0l61.10324,221.27773z" fill="#2f2e41" id="svg_28"/>
   <polygon stroke="null" points="440.15594482421875,547.1464337033358 187.5480194091797,547.1464337033358 132.88949584960938,347.282473938134 496.445068359375,347.282473938134 496.1144104003906,348.4592713029706 440.15594482421875,547.1464337033358 " fill="#f2f2f2" id="svg_29"/>
   <rect stroke="null" x="132.88778" y="401.83743" width="373.1211" height="2.03943" fill="#2f2e41" id="svg_31"/>
   <rect stroke="null" x="153.63574" y="476.97355" width="331.00546" height="2.03943" fill="#2f2e41" id="svg_32"/>
   <rect stroke="null" x="318.80949" y="334.53638" width="1.84079" height="223.31715" fill="#2f2e41" id="svg_33"/>
   <rect stroke="null" x="225.98862" y="425.18845" width="1.70379" height="186.92877" fill="#2f2e41" id="svg_35" transform="matrix(1.0783 -0.0778627 0.0702789 1.19466 -38.971 -155.759)"/>
  </g>
 </g>
</svg>